<?xml version="1.0" encoding="utf-8"?>
<svg xmlns="http://www.w3.org/2000/svg" xmlns:xlink="http://www.w3.org/1999/xlink" version="1.2" preserveAspectRatio="xMidYMin meet" viewBox="-60 -27.5 520 330" data-sitelen-sentence=""><style>ellipse,polygon,polyline,rect,circle,line,path{stroke-width:2;stroke:black;vector-effect:non-scaling-stroke} .filler{stroke:none;}</style><svg width="400" height="275" viewBox="0 0 100 100" y="0" preserveAspectRatio="none" filter="" style="overflow: visible;"><svg viewBox="-1 19 102 102" preserveAspectRatio="none" height="27.272727272727273" width="100" x="0" y="72.72727272727273" style="overflow: visible;"><use xlink:href="#tp-wg-period" transform="matrix(1.2,0,0,1.2,-10,-10)" height="100" width="100" x="0" y="0"></use></svg><rect transform="matrix(1.056,0,0,1.056,-4.200000000000003,-2.036363636363639)" height="72.72727272727273" width="50" x="50" y="0" rx="7.102272727272727" ry="10.330578512396693" fill="#fff"></rect><svg viewBox="-1 -1 102 102" preserveAspectRatio="none" height="72.72727272727273" width="50" x="0" y="0" style="overflow: visible;"><use xlink:href="#tp-c-pi-wide" transform="matrix(1.104,0,0,1.104,-5.200000000000003,-7.800000000000011)" height="50" width="100" x="0" y="50"></use><svg viewBox="-1 -1 102 102" preserveAspectRatio="none" height="50" width="100" x="0" y="0" style="overflow: visible;"><use xlink:href="#tp-wg-lipu" transform="matrix(1.2,0,0,1.2,-5,-10)" height="100" width="50" x="0" y="0"></use><use xlink:href="#tp-wg-sona" transform="matrix(1.2,0,0,1.2,-15,-10)" height="100" width="50" x="50" y="0"></use></svg><svg viewBox="-16 -16 132 132" preserveAspectRatio="none" height="50" width="100" x="0" y="50" style="overflow: visible;"><svg viewBox="-1 -1 102 102" preserveAspectRatio="none" height="100" width="50" x="0" y="0" style="overflow: visible;"><use xlink:href="#tp-wg-jan" transform="matrix(1.2,0,0,1.2,-10,-10)" height="100" width="100" x="0" y="0"></use></svg><use xlink:href="#tp-c-cartouche" transform="matrix(1.104,0,0,1.104,-7.800000000000011,-5.200000000000003)" height="100" width="50" x="50" y="0"></use><svg viewBox="-16 -16 132 132" preserveAspectRatio="none" height="100" width="50" x="50" y="0" style="overflow: visible;"><use xlink:href="#tp-syl-wen" transform="matrix(1.2,0,0,1.2,-10,-10)" height="100" width="100" x="0" y="0"></use></svg></svg></svg><svg viewBox="-16 -16 132 132" preserveAspectRatio="none" height="72.72727272727273" width="50" x="50" y="0" style="overflow: visible;"><use xlink:href="#tp-wg-pona" transform="matrix(1.2,0,0,1.2,-10,-10)" height="100" width="100" x="0" y="0"></use></svg></svg><symbol viewBox="-2 -2 269 38" preserveAspectRatio="none" id="tp-wg-period"> <g id="period" fill="#FFF" stroke-miterlimit="10"> <path d="M262.707 22.562c0 5.074-3.526 9.188-7.875 9.188H10.375c-4.35 0-7.875-4.113-7.875-9.188 0-5.074 3.526-9.188 7.875-9.188h244.457c4.35 0 7.875 4.114 7.875 9.188z"></path> <path d="M262.707 11.688c0 5.074-3.526 9.188-7.875 9.188H10.375c-4.35 0-7.875-4.113-7.875-9.188S6.026 2.5 10.375 2.5h244.457c4.35 0 7.875 4.113 7.875 9.188z"></path> </g> </symbol><symbol viewBox="0 0 211.633 169.814" id="tp-c-pi-wide" preserveAspectRatio="none" style="overflow:visible;"> <g id="pi-wide" transform="matrix(1 0 0 1.2 0 0)"> <path style="fill:#FFFFFF;stroke-linecap:round;stroke-linejoin:round;stroke-miterlimit:10;" d=" M2.501,34.945C2.501,17.026,17.027,2.5,34.946,2.5h141.743c17.919,0,32.445,14.526,32.445,32.445v70.453 c0,17.919-14.526,32.445-32.445,32.445l-135.525,0v10.139c0,10.677-8.655,19.332-19.332,19.332l0,0 c-10.677,0-19.332-8.655-19.332-14.735v-47.18V34.945H2.501z"></path> <circle cx="21.833" cy="153.667" r="3.785"></circle> <circle cx="21.833" cy="140.689" r="3.785"></circle> </g> </symbol><symbol viewBox="-2 -2 129 129" preserveAspectRatio="none" id="tp-wg-lipu"> <g id="bylipu"> <path d="M50.375 60.477c0 13.22-9.125 24.938-23.938 24.938C11.75 85.415 2.5 75.72 2.5 62.5c0-33.137 26.863-60 60-60 21.93 0 39.708 16.25 39.708 36.25S88.316 79.42 88.316 79.42c4.185-1.586 9.89-2.985 14.788-2.985 10.712 0 19.396 5.815 19.396 19.067 0 16.57-11.25 26.998-33.002 26.998h-65.06c-10.53 0-19.064-7.534-19.064-18.062 0-4.948.828-9.67 3.976-13.845s6.4-7.176 6.4-7.176" fill="#FFF" stroke-linecap="round" stroke-linejoin="round" stroke-miterlimit="10"></path> <path d="M53 122.25c0-12 17.25-43.75 17.25-43.75 7.25-14.25 8.42-26.828.142-34.142C61.5 36.5 41 34.25 28 62" fill="none" stroke-linecap="round" stroke-linejoin="round" stroke-miterlimit="10"></path> <circle cx="21.253" cy="46.249" r="3.099"></circle> <circle cx="32.749" cy="31.622" r="3.099"></circle> <circle cx="50.25" cy="23.999" r="3.099"></circle> </g> </symbol><symbol viewBox="-2 -2 129 129" preserveAspectRatio="none" id="tp-wg-sona"> <g id="ivsona"> <circle cx="74.461" cy="58.211" r="32.211" fill="#FFF"></circle> <path d="M122 89.233C122 105.108 110.93 122 94.5 122l-46-.67-10-3.352-8.333 2.682C13.737 120.66 3 105.108 3 89.233v-57.49C3 15.87 16.32 3 32.75 3h59.5C108.68 3 122 15.87 122 31.744v57.49z" fill="none"></path> <path d="M80.73 41.478s6.833 6.167 2.333 10.667-11.98-10.728-16.813-5.895S77.56 65.823 69.75 73c-9.25 8.5-21.5-15.75-32.688-10.188-15.408 7.66-26.104 59.688 20.563 59.688H92.5c16.57 0 30-13.43 30-30v-60c0-16.57-13.43-30-30-30h-60c-16.57 0-30 13.43-30 30v59c0 12.498 7.507 23.178 18.375 27.687l.688.28c2.303.9 4.504 1.282 7.125 1.282 3.166 0 6.164-.72 8.84-2.007" fill="#FFF" stroke-linecap="round" stroke-linejoin="round" stroke-miterlimit="10"></path> </g> </symbol><symbol viewBox="-2 -2 129 129" preserveAspectRatio="none" id="tp-wg-jan"> <g id="aujan"> <path d="M115.5 41c0 16.57-13.43 30-30 30h-46c-16.57 0-30-13.43-30-30v-8.5c0-16.57 13.43-30 30-30h46c16.57 0 30 13.43 30 30V41z" fill="#FFF" stroke-miterlimit="10"></path> <path d="M68.673 22.084c1.747 2.964 2.783 6.66 2.783 10.666 0 18.417-20.08 17.667-20.08 17.667A7.375 7.375 0 0 1 44 43.042V29.25c0-10.217 8.283-18.5 18.5-18.5S81 19.033 81 29.25V39.5c0 3.75 2.5 8.083 11.73 10.825 16.77 4.842 29.77 19.98 29.77 38.487V92.5c0 16.57-15.433 30-32 30h-56c-16.568 0-32-13.43-32-30v-3.688c0-21.953 18.25-37.312 42-42.062" fill="#FFF" stroke-linecap="round" stroke-linejoin="round" stroke-miterlimit="10"></path> <circle cx="56.666" cy="31.459" r="3.375"></circle> <path fill="none" stroke-linecap="round" stroke-linejoin="round" stroke-miterlimit="10" d="M41.167 96.347L72.81 68.164m-20.62 38L83.832 77.98M72.81 106.164L41.168 77.98m42.665 18.367L52.19 68.164"></path> </g> </symbol><symbol viewBox="0 0 298.495 245" preserveAspectRatio="none" id="tp-c-cartouche"> <g id="cartouche" fill="#FFF" stroke="#000" stroke-width="5" stroke-linecap="round" stroke-linejoin="round" stroke-miterlimit="10"> <path d="M127.454,242.5H27.041c-14.659,0-24.541-9.352-24.541-20.889l0,0c0-7.698,2.595-14.423,10.47-18.046l0-151.223L12.803,35 c0-17.949,14.551-32.5,32.5-32.5h207.888c17.949,0,32.416,14.551,32.416,32.5v17.341l-0.084,151.612 c7.425,3.703,10.47,10.227,10.47,17.657l0,0c0,11.537-9.882,20.889-24.541,20.889H171.041H127.454z"></path> </g> </symbol><symbol viewBox="-2 -2 129.144 129" preserveAspectRatio="none" id="tp-syl-wen"> <g id="dlwen"> <g id="dlwen_1_" stroke="#000" stroke-width="5" stroke-linecap="round" stroke-linejoin="round" stroke-miterlimit="10"> <path d="M2.5 105.436c0-16.853 26.738-22.407 59.875-22.407s60.134 7.536 60.134 22.795c0 10.314-9.27 16.675-20.867 16.675-13 0-21-6.773-21-17.087 0 9.495-6.5 15.604-18 15.604-12.5 0-18-6.11-18-15.604 0 10.314-8.75 17.087-21.25 17.087-11.597 0-20.893-6.75-20.893-17.064z" fill="#FFF"></path> <path d="M2.625 21.174c0-10.314 9.402-18.674 21-18.674 13 0 21 9.95 21 20.262 0-9.495 6.5-18.78 18-18.78 12.5 0 18 9.285 18 18.78 0-10.314 8.75-20.262 21.25-20.262 11.598 0 20.77 9.14 20.77 19.453l-.02 28.15c0 26.29-26.863 47.603-60 47.603s-60-21.313-60-47.603v-28.93z" fill="#FFF"></path> <path d="M19.83 26.84c11.95-2.666 26.747-4.24 42.77-4.24 16.053 0 30.877 1.566 42.84 4.24" fill="#FFF"></path> <path d="M62.634 35.734V80.34M37.967 58.036h49.335" fill="none"></path> </g> </g> </symbol><symbol viewBox="-2 -2 129.01999999999998 129" preserveAspectRatio="none" id="tp-wg-pona"> <g id="dqpona" fill="#FFF"> <ellipse cx="71.361" cy="40.749" rx="38.75" ry="10.251"></ellipse> <path d="M12 38.5c-14.5-14.75-4.75-36 11.5-36 13 0 21 12.54 21 25.54 0-11.97 6.5-23.672 18-23.672 12.5 0 18 11.703 18 23.67C80.5 15.04 89.25 2.5 101.75 2.5c11.6 0 20.77 11.52 20.77 24.52l-.02 35.48c0 33.137-26.862 60-60 60s-60-26.863-60-60c0 0-.5-28.25 22-28.25 19.25 0 25.002 10.5 42.253 10.5 16.75 0 25.545-5.542 30.75-9.5" stroke-linecap="round" stroke-linejoin="round" stroke-miterlimit="10"></path> <path d="M25.002 57.997c9.5-5.5 19.25 6 38 6.416 14.998.334 29.67-9.913 36.75-5.166 9.25 6.2 5.5 37.248-38.5 37.248s-44.35-33.807-36.25-38.498z" stroke-linecap="round" stroke-linejoin="round" stroke-miterlimit="10"></path> <path d="M36.754 72.604s12 7.615 26.75 7.615 23-7.277 23-7.277" stroke-linecap="round" stroke-linejoin="round" stroke-miterlimit="10"></path> </g> </symbol></svg>
