<?xml version="1.0" encoding="utf-8"?>
<svg xmlns="http://www.w3.org/2000/svg" xmlns:xlink="http://www.w3.org/1999/xlink" version="1.2" preserveAspectRatio="xMidYMin meet" viewBox="-45 -15.625 390 187.5" data-sitelen-sentence=""><style>ellipse,polygon,polyline,rect,circle,line,path{stroke-width:2;stroke:black;vector-effect:non-scaling-stroke} .filler{stroke:none;}</style><svg width="300" height="156.25" viewBox="0 0 100 100" y="0" preserveAspectRatio="none" filter="" style="overflow: visible;"><svg viewBox="-1 19 102 102" preserveAspectRatio="none" height="36" width="100" x="0" y="64" style="overflow: visible;"><use xlink:href="#tp-wg-period" transform="matrix(1.2,0,0,1.2,-10,-10)" height="100" width="100" x="0" y="0"></use></svg><rect transform="matrix(1.056,0,0,1.056,-4.666666666666671,-1.7920000000000016)" height="64" width="33.333333333333336" x="66.66666666666667" y="0" rx="4.734848484848484" ry="9.09090909090909" fill="#fff"></rect><svg viewBox="-1 -1 102 102" preserveAspectRatio="none" height="64" width="66.66666666666667" x="0" y="0" style="overflow: visible;"><use xlink:href="#tp-wg-toki" transform="matrix(1.2,0,0,1.2,-5,-10)" height="100" width="50" x="0" y="0"></use><use xlink:href="#tp-wg-pona" transform="matrix(1.2,0,0,1.2,-15,-10)" height="100" width="50" x="50" y="0"></use></svg><svg viewBox="-16 -16 132 132" preserveAspectRatio="none" height="64" width="33.333333333333336" x="66.66666666666667" y="0" style="overflow: visible;"><use xlink:href="#tp-wg-pona" transform="matrix(1.2,0,0,1.2,-10,-10)" height="100" width="100" x="0" y="0"></use></svg></svg><symbol viewBox="-2 -2 269 38" preserveAspectRatio="none" id="tp-wg-period"> <g id="period" fill="#FFF" stroke-miterlimit="10"> <path d="M262.707 22.562c0 5.074-3.526 9.188-7.875 9.188H10.375c-4.35 0-7.875-4.113-7.875-9.188 0-5.074 3.526-9.188 7.875-9.188h244.457c4.35 0 7.875 4.114 7.875 9.188z"></path> <path d="M262.707 11.688c0 5.074-3.526 9.188-7.875 9.188H10.375c-4.35 0-7.875-4.113-7.875-9.188S6.026 2.5 10.375 2.5h244.457c4.35 0 7.875 4.113 7.875 9.188z"></path> </g> </symbol><symbol viewBox="-2 -2 132.25 129" preserveAspectRatio="none" id="tp-wg-toki"> <g id="jgtoki"> <path d="M108.75 58.25c16.25 34-13.113 64.25-46.25 64.25s-60-26.863-60-60V45.757C2.5 17.5 30.09 2.5 64.125 2.5c38.625 0 61.625 14.44 61.625 32.25S106 74.25 45.75 49" fill="#FFF" stroke-linecap="round" stroke-linejoin="round" stroke-miterlimit="10"></path> <ellipse transform="rotate(-44.594 32.624 31.374)" cx="32.625" cy="31.375" rx="12.375" ry="12.375" fill="#FFF" stroke-width="3.5" stroke-linecap="round" stroke-linejoin="round" stroke-miterlimit="10"></ellipse> <circle cx="34.126" cy="30.125" r="5.458"></circle> <path d="M95.25 60.5s1.25 6.75 1.25 20-9.08 23.75-22.75 23.75S50 93.25 50 79.5c0-16 2-27.5 2-27.5" fill="none" stroke-linecap="round" stroke-linejoin="round" stroke-miterlimit="10"></path> <path d="M96.347 69.08c-7.253 1.397-15.227 2.17-23.598 2.17S57.75 70.398 50.5 69m45.847 12.83C89.094 83.226 81.12 84 72.75 84s-15.247-.602-22.5-2" fill="none" stroke-width="3.5" stroke-miterlimit="10"></path> </g> </symbol><symbol viewBox="-2 -2 129.01999999999998 129" preserveAspectRatio="none" id="tp-wg-pona"> <g id="dqpona" fill="#FFF"> <ellipse cx="71.361" cy="40.749" rx="38.75" ry="10.251"></ellipse> <path d="M12 38.5c-14.5-14.75-4.75-36 11.5-36 13 0 21 12.54 21 25.54 0-11.97 6.5-23.672 18-23.672 12.5 0 18 11.703 18 23.67C80.5 15.04 89.25 2.5 101.75 2.5c11.6 0 20.77 11.52 20.77 24.52l-.02 35.48c0 33.137-26.862 60-60 60s-60-26.863-60-60c0 0-.5-28.25 22-28.25 19.25 0 25.002 10.5 42.253 10.5 16.75 0 25.545-5.542 30.75-9.5" stroke-linecap="round" stroke-linejoin="round" stroke-miterlimit="10"></path> <path d="M25.002 57.997c9.5-5.5 19.25 6 38 6.416 14.998.334 29.67-9.913 36.75-5.166 9.25 6.2 5.5 37.248-38.5 37.248s-44.35-33.807-36.25-38.498z" stroke-linecap="round" stroke-linejoin="round" stroke-miterlimit="10"></path> <path d="M36.754 72.604s12 7.615 26.75 7.615 23-7.277 23-7.277" stroke-linecap="round" stroke-linejoin="round" stroke-miterlimit="10"></path> </g> </symbol></svg>