<?xml version="1.0" encoding="UTF-8" standalone="no"?> <!-- Created with Vectornator for iOS (http://vectornator.io/) --><!DOCTYPE svg PUBLIC "-//W3C//DTD SVG 1.1//EN" "http://www.w3.org/Graphics/SVG/1.1/DTD/svg11.dtd">
<svg height="100%" style="fill-rule:nonzero;clip-rule:evenodd;stroke-linecap:round;stroke-linejoin:round;" xmlns:xlink="http://www.w3.org/1999/xlink" xmlns="http://www.w3.org/2000/svg" xml:space="preserve" width="100%" xmlns:vectornator="http://vectornator.io" version="1.1" viewBox="0 0 841.995 595.35">
<metadata>
<vectornator:setting key="DimensionsVisible" value="1"/>
<vectornator:setting key="PencilOnly" value="0"/>
<vectornator:setting key="SnapToPoints" value="0"/>
<vectornator:setting key="OutlineMode" value="0"/>
<vectornator:setting key="CMYKEnabledKey" value="0"/>
<vectornator:setting key="RulersVisible" value="1"/>
<vectornator:setting key="SnapToEdges" value="0"/>
<vectornator:setting key="GuidesVisible" value="1"/>
<vectornator:setting key="DisplayWhiteBackground" value="0"/>
<vectornator:setting key="doHistoryDisabled" value="0"/>
<vectornator:setting key="SnapToGuides" value="1"/>
<vectornator:setting key="TimeLapseWatermarkDisabled" value="0"/>
<vectornator:setting key="Units" value="Millimeters"/>
<vectornator:setting key="DynamicGuides" value="0"/>
<vectornator:setting key="IsolateActiveLayer" value="0"/>
<vectornator:setting key="SnapToGrid" value="0"/>
</metadata>
<defs/>
<g id="Layer 1" vectornator:layerName="Layer 1">
<path d="M13.5541-405.197C12.6641-411.313+12.459-417.569+10.8843-423.545C10.6576-424.406+9.59497-422.243+9.2825-421.409C8.78255-420.076+9.2825-418.562+9.2825-417.138" opacity="1" fill="#ac2f26"/>
<path d="M-42.5102+390.721C-45.7324+384.276-45.4656+379.726-45.7138+372.033C-46.289+354.203-40.746+336.19-38.2386+318.638C-31.4334+271.002-33.4331+222.457-33.4331+174.473C-33.4331+151.324-32.3652+128.21-32.3652+105.06C-32.3652+96.1616-31.1018+86.1392-32.3652+77.2951C-32.7507+74.5963-34.1306+69.613-36.1028+73.5575" opacity="1" fill="#ac2f26"/>
<path stroke="#000000" stroke-width="1" d="M742.421-484.999C747.583-465.714+715.257-459.573+712.935-479.392C712.488-481.674+711.743-483.93+711.72-486.276C710.934-506.856+743.771-505.283+742.421-484.999" fill="none" stroke-linecap="round" opacity="1" stroke-linejoin="round"/>
<path stroke="#000000" stroke-width="1" d="M43.8053+159.148C43.4999+152.387+51.7497+150.141+53.6769+156.463C54.8049+162.689+54.5943+169.297+55.5421+175.632C56.5054+247.034+49.3436+318.475+53.5222+389.825C53.4911+401.65+53.1958+413.566+53.0792+425.329C52.6395+424.866+51.6304+422.873+52.9467+423.887C79.3047+432.257+106.852+427.982+133.76+429.013C158.718+421.081+184.421+421.887+209.658+426.537C213.622+426.558+217.654+426.139+221.585+425.58C221.659+425.695+221.243+426.328+221.185+426.541C220.602+424.347+221.634+419.682+221.749+416.709C230.725+359.511+225.917+301.216+220.79+243.882C221.27+214.403+220.203+184.884+223.174+155.56C224.382+154.989+227.051+157.999+227.738+159.42C203.967+162.912+179.668+152.359+156.388+162.081C150.023+162.365+143.804+164.419+137.433+164.721C108.611+162.813+79.8366+161.712+51.0326+164.567C49.6469+164.546+48.2692+163.999+47.1277+163.007C43.2478+159.917+43.0481+152.064+46.7631+148.667C47.5931+147.844+48.5716+147.262+49.6027+146.977C53.6373+146.465+57.7202+146.416+61.7779+146.545C83.7156+141.914+105.95+145.502+128.07+146C131.493+145.901+134.918+145.845+138.339+145.69C156.034+142.836+173.775+144.841+191.593+145.025C202.824+148.265+215.519+146.477+226.318+146.449C228.138+146.604+229.579+148.29+231.013+149.513C234.059+151.627+233.411+156.109+233.423+159.724C231.719+177.562+230.536+195.451+231.606+213.426C229.094+249.634+235.537+285.402+237.063+321.452C238.203+357.408+235.413+393.265+231.057+428.731C230.579+431.591+229.332+434.328+227.432+436.052C222.469+440.172+216.23+438.737+210.628+439.66C185.325+435.17+159.629+433.934+134.606+441.989C106.139+440.964+76.853+445.698+49.0964+435.916C47.5642+435.111+46.0389+434.072+44.9932+432.396C43.985+430.762+43.1751+428.845+42.9455+426.773C42.5823+414.227+43.3035+401.705+43.1781+389.164C39.5162+340.556+44.0297+291.767+43.8282+243.085C45.6222+215.195+46.4087+186.946+43.8053+159.148" fill="#000000" stroke-linecap="round" opacity="1" stroke-linejoin="round"/>
<path stroke="#000000" stroke-width="1" d="M74.781+250.155C74.1713+244.55+80.1703+240.762+83.3591+244.745C84.0823+245.552+84.6187+246.622+84.8875+247.792C93.3018+298.13+86.4873+349.381+86.9449+400.189C87.0471+400.768+85.5591+399.205+86.0415+399.284C93.307+398.961+100.583+398.827+107.831+397.922C134.543+390.424+162.006+395.402+189.046+392.752C190.117+392.658+187.676+394.331+188.089+395.51C187.146+383.167+189.336+370.078+188.462+357.398C182.916+322.127+182.16+285.428+186.378+249.884C187.49+251.086+189.551+251.423+190.068+253.204C158.433+257.359+126.469+256.587+94.6498+256.514C91.8979+256.883+89.1368+257.331+86.3654+256.87C85.7134+256.893+85.0914+257.236+84.5735+257.719C77.5327+264.358+70.6762+246.727+78.4759+242.081C79.4314+241.327+80.5259+240.866+81.6456+240.716C83.5117+241.559+85.3718+242.539+87.3643+242.78C121.133+244.375+155.142+244.188+188.776+240.297C190.953+240.376+192.933+241.955+194.603+243.59C196.506+245.599+196.66+249.049+196.47+251.937C192.584+286.511+193.34+322.085+198.753+356.351C199.5+369.801+197.877+383.245+198.083+396.6C197.786+398.672+197.224+400.777+196.046+402.328C194.649+404.141+192.755+405.241+190.786+405.616C163.527+408.63+135.825+403.312+108.887+410.884C101.466+411.839+94.0191+411.948+86.5785+412.3C84.1056+412.2+81.5175+411.439+79.6887+409.198C77.8798+407.312+77.0264+404.378+76.7198+401.523C75.8458+351.064+83.0338+300.185+74.781+250.155" fill="#000000" stroke-linecap="round" opacity="1" stroke-linejoin="round"/>
<path stroke="#000000" stroke-width="1" d="M127.829+186.21C127.582+175.227+142.152+178.256+138.951+188.627C138.758+190.012+138.688+191.424+138.749+192.829C137.701+205.306+142.483+218.95+139.314+230.96C136.097+237.1+128.313+231.855+129.94+224.989C129.932+224.112+129.895+223.235+129.828+222.362C128.857+210.336+128.994+198.19+127.829+186.21" fill="#000000" stroke-linecap="round" opacity="1" stroke-linejoin="round"/>
<path stroke="#000000" stroke-width="1" d="M166.078+235.169C163.441+241.502+154.982+238.436+155.419+231.303C155.436+230.055+155.72+228.818+156.222+227.744C166.57+213.93+172.774+193.777+184.892+182.55C190.861+180.78+193.409+191.767+188.353+195.46C187.66+196.517+187+197.607+186.332+198.688C179.921+211.122+171.042+221.67+166.078+235.169" fill="#000000" stroke-linecap="round" opacity="1" stroke-linejoin="round"/>
<path stroke="#000000" stroke-width="1" d="M81.8307+194.704C78.7625+190.644+81.7848+183.198+86.1907+183.973C89.6945+184.312+91.2623+189.159+93.3885+191.916C99.1906+199.234+103.419+208.217+109.269+215.449C110.364+217.499+111.478+219.534+112.6+221.56C113.416+223.54+114.42+225.516+114.765+227.74C115.82+237.192+104.189+237.368+103.734+228.231C102.676+226.52+101.82+224.63+100.78+222.906C94.0615+213.971+88.4402+203.806+81.8307+194.704" fill="#000000" stroke-linecap="round" opacity="1" stroke-linejoin="round"/>
<path stroke="#000000" stroke-width="1" d="M253.466+146.73C253.804+139.315+264.522+136.39+268.54+142.621C269.383+143.781+269.921+145.161+270.086+146.588C270.263+176.667+274.957+206.741+277.885+236.724C278.235+266.69+277.973+296.677+278.473+326.628C275.34+359.407+271.155+392.401+270.49+425.236C269.204+425.806+266.516+419.978+265.134+420.292C323.38+425.762+381.641+410.407+439.997+413.898C454.861+413.171+469.955+412.344+484.527+415.727C507.128+415.894+529.803+414.168+551.898+419.002C557.625+421.621+558.125+430.565+552.726+433.812C548.153+436.32+542.477+435.648+537.484+436.127C502.239+428.847+465.745+435.041+430.255+430.049C419.551+429.772+408.888+430.458+398.198+430.579C351.874+434.568+304.978+440.627+258.51+437.335C254.963+435.362+252.372+431.836+250.892+428.101C261.911+349.925+266.914+269.216+255.379+190.546C255.921+175.858+252.062+161.354+253.466+146.73" fill="#000000" stroke-linecap="round" opacity="1" stroke-linejoin="round"/>
<g opacity="1">
<path stroke="#000000" stroke-width="1" d="M419.575+142.101C433.336+140.287+431.461+164.533+418.03+160.09C416.357+159.98+414.703+160.317+413.033+160.349C409.791+160.333+406.535+160.537+403.364+161.273C398.363+162.196+393.76+164.556+389.355+167.065C341.245+196.997+294.501+255.594+312.806+317.006C321.311+334.627+336.494+348.233+353.496+356.871C414.183+376.914+496.582+355.852+522.481+290.913C531.364+258.876+530.448+219.444+507.473+193.65C492.804+175.201+468.554+174.676+450.117+162.789C445.923+162.328+441.915+165.281+437.653+163.993C436.554+163.763+435.495+163.324+434.554+162.695C426.547+153.648+415.572+160.583+406.022+158.116C397.534+154.568+401.694+140.707+410.612+142.027C412.153+141.842+413.701+141.741+415.241+141.55C418.138+141.039+421.049+140.651+423.992+140.633C429.305+139.431+434.822+138.984+440.234+139.749C441.761+140.068+443.332+140.296+444.782+140.912C447.233+142.123+449.066+144.286+451.358+145.739C479.94+156.092+510.98+166.985+530.204+192.705C547.216+229.705+549.855+277.124+529.977+313.689C512.625+343.831+482.115+363.121+450.687+374.551C416.929+392.423+373.681+392.394+342.124+369.531C332.612+363.559+322.108+358.787+314.106+350.66C257.291+278.118+323.492+177.644+393.824+146.667C402.06+143.021+411.296+145.098+419.575+142.101" fill="#000000" stroke-linecap="round" opacity="1" stroke-linejoin="round"/>
<path stroke="#000000" stroke-width="1" d="M306.079+404.615C303.112+414.692+287.077+410.931+288.67+400.529C290.873+384.282+305.572+375.711+316.59+366.008C319.47+363.721+321.888+360.907+324.357+358.178C325.526+356.9+326.731+355.651+328.032+354.513C336.784+343.7+349.993+362.099+337.627+368.03C335.52+370.175+333.614+372.518+331.474+374.63C325.186+386.24+315.705+396.775+306.079+404.615" fill="#000000" stroke-linecap="round" opacity="1" stroke-linejoin="round"/>
<path stroke="#000000" stroke-width="1" d="M537.582+382.356C545.38+387.062+540.634+400.699+531.699+399.247C530.151+399.059+528.553+398.551+527.355+397.5C517.662+386.356+506.221+376.987+496.612+365.749C493.477+362.341+487.797+359.527+488.238+353.953C488.83+343.359+503.103+344.47+506.849+352.697C508.577+354.426+510.09+356.361+511.696+358.206C520.467+365.962+527.866+376.372+537.582+382.356" fill="#000000" stroke-linecap="round" opacity="1" stroke-linejoin="round"/>
</g>
<path stroke="#000000" stroke-width="1" d="M566.015+156.61C561.955+153.193+567.393+147.157+572.523+149.388C575.459+150.677+577.042+153.37+579.142+155.372C597.564+182.912+619.133+209.002+633.417+238.277C644.91+253.389+658.563+268.265+666.866+284.664C666.879+287.989+661.912+290.249+658.514+288.464C639.421+264.162+622.006+238.298+601.144+214.849C588.54+195.769+582.654+173.8+566.015+156.61" fill="#000000" stroke-linecap="round" opacity="1" stroke-linejoin="round"/>
<path stroke="#000000" stroke-width="1" d="M566.665+409.285C563.932+413.953+554.477+411.789+555.054+406.625C588.78+366.904+621.032+325.018+656.841+286.372C660.615+284.67+665.688+287.458+665.241+290.989C633.86+330.84+598.178+369.439+566.665+409.285" fill="#000000" stroke-linecap="round" opacity="1" stroke-linejoin="round"/>
<path stroke="#000000" stroke-width="1" d="M684.872+257.073C690.902+251.527+700.727+260.394+691.944+263.653C691.622+265.593+691.406+267.545+691.346+269.498C689.962+289.645+695.247+318.446+729.209+324.17C749.567+328.215+770.581+319.298+776.131+305.599C786.663+293.055+790.015+276.014+780.07+262.912C779.639+261.567+778.973+260.213+778.937+258.823C779.795+252.911+792.254+255.877+790.142+261.218C796.585+267.568+796+275.523+795.797+282.877C796.627+296.621+785.913+308.776+776.32+320.25C762.216+333.03+735.31+334.68+715.084+328.485C696.241+320.947+684.94+306.345+682.798+291.76C682.207+288.553+681.649+285.342+681.38+282.113C681.359+273.828+678.783+264.665+684.872+257.073" fill="#000000" stroke-linecap="round" opacity="1" stroke-linejoin="round"/>
<path stroke="#000000" stroke-width="1" d="M367.601+256.065C366.713+257.561+364.17+257.048+363.934+255.324C367.961+246.286+373.751+237.448+378.626+228.652C379.247+228.115+380.121+227.978+380.915+227.95C382.172+227.983+382.938+229.279+383.089+230.402C383.792+256.433+384.719+282.623+384.45+308.684C384.074+310.253+381.757+310.653+380.876+309.301C376.939+286.764+381.674+263.631+378.466+240.971C378.692+237.685+378.818+234.374+379.106+231.092C379.228+231.171+380.937+231.765+381.696+231.252C376.758+239.382+372.706+248.026+367.601+256.065" fill="#000000" stroke-linecap="round" opacity="1" stroke-linejoin="round"/>
<path stroke="#000000" stroke-width="1" d="M398.217+268.229C396.081+268.832+394.493+265.777+396.216+264.378C410.028+262.758+424.612+261.08+438.619+260.387C439.706+260.899+440.069+262.436+439.328+263.381C426.271+266.473+411.547+265.931+398.217+268.229" fill="#000000" stroke-linecap="round" opacity="1" stroke-linejoin="round"/>
<path stroke="#000000" stroke-width="1" d="M410.843+233.596C410.271+231.51+413.203+229.923+414.635+231.546C421.8+253.668+416.429+277.657+422.101+300.128C421.974+301.623+420+302.434+418.859+301.46C411.699+279.69+417.925+255.561+410.843+233.596" fill="#000000" stroke-linecap="round" opacity="1" stroke-linejoin="round"/>
<path stroke="#000000" stroke-width="1" d="M454.666+227.137C454.996+225.145+458.022+224.749+458.852+226.591C458.459+249.567+459.851+273.395+460.933+296.431C460.199+297.873+458.051+298.199+456.922+297.04C456.112+296.315+456.13+295.134+455.781+294.187C455.339+290.173+454.888+286.134+454.122+282.169C455.005+263.915+450.626+245.023+454.666+227.137" fill="#000000" stroke-linecap="round" opacity="1" stroke-linejoin="round"/>
<path stroke="#000000" stroke-width="1" d="M470.377+278.1C471.465+277.179+473.339+277.85+473.59+279.254C470.259+285.906+464.361+292.694+461.084+299.543C460.247+299.89+459.204+299.579+458.693+298.831C458.454+291.048+466.222+284.198+470.377+278.1" fill="#000000" stroke-linecap="round" opacity="1" stroke-linejoin="round"/>
<path stroke="#000000" stroke-width="1" d="M446.591+278.008C445.503+277.087+443.63+277.758+443.379+279.162C446.709+285.815+452.608+292.602+455.885+299.452C456.722+299.798+457.765+299.487+458.275+298.739C458.514+290.956+450.746+284.106+446.591+278.008" fill="#000000" stroke-linecap="round" opacity="1" stroke-linejoin="round"/>
<path stroke="#000000" stroke-width="1" d="M422.397+211.572C419.485+214.389+414.949+209.568+417.941+206.835C420.683+204.301+423.379+201.59+426.908+200.157C448.599+194.264+477.249+194.315+493.61+212.238C507.102+235.107+509.45+263.082+510.166+289.121C509.737+292.783+508.571+296.309+507.221+299.723C503.872+307.908+497.666+314.447+491.039+320.117C453.693+344.056+403.936+354.911+362.047+336.838C359.505+335.265+356.853+333.699+354.9+331.382C349.945+323.011+343.443+315.323+340.073+306.088C311.289+270.646+332.185+209.911+378.307+202.207C386.075+198.877+394.353+197.096+402.746+196.244C406.417+195.818+410.08+196.68+413.34+198.372C417.018+199.994+422.424+202.252+421.986+207.09C428.293+214.592+410.956+215.79+410.643+208.063C408.911+206.936+407.048+205.706+405.05+205.171C379.505+204.54+352.378+217.543+341.313+241.482C326.137+268.662+340.302+300.408+358.644+321.8C362.762+326.552+368.24+329.715+373.478+332.952C413.497+341.046+459.479+338.5+491.236+309.798C514.832+284.373+498.807+244.24+488.358+216.097C471.834+200.544+440.36+197.789+422.397+211.572" fill="#000000" stroke-linecap="round" opacity="1" stroke-linejoin="round"/>
</g>
</svg>
